<?xml version="1.0" encoding="UTF-8"?>
<svg id="Calque_1" data-name="Calque 1" xmlns="http://www.w3.org/2000/svg" viewBox="0 0 1794 1638.56">
  <defs>
    <style>
      .cls-1 {
        fill: #fff;
      }

      .cls-2 {
        /* fill: #7c00ff; */
        fill: #D72638;
      }
    </style>
  </defs>
  <g>
    <path class="cls-2" d="m1228.6,1629.23c-142.06-28.64-261.01-121.12-325.6-246.22h177.05c30.15,110.57,83.2,198.75,148.55,246.22Z"/>
    <path class="cls-2" d="m1598.94,1383.01h142.75c-56.68,109.77-155.2,194.42-274.47,232.88,57.61-49.69,104.19-131.96,131.72-232.88Z"/>
    <path class="cls-2" d="m1749.3,966.24h-148.53c-29.91-114.17-84.06-205.25-151.07-253.58,132.75,37.13,241.83,130.88,299.59,253.58Z"/>
    <path class="cls-2" d="m1078.22,966.24h-182.83c65.09-138.25,195.37-239.77,351.2-264.93-74.97,44.42-135.92,141.1-168.37,264.93Z"/>
    <path class="cls-2" d="m1117.1,1383.01h444.8c-41.69,147.76-125.63,248.69-222.4,248.69s-180.7-100.93-222.4-248.69Z"/>
    <path class="cls-2" d="m1563.8,966.24h-448.6c41.01-151.48,126.04-255.55,224.3-255.55s183.29,104.07,224.3,255.55Z"/>
    <path class="cls-2" d="m1052.71,1171.19c0,58.67,5.88,114.98,16.67,167.22h-186.53c-20.77-53.15-32.16-111-32.16-171.51,0-55.35,9.54-108.45,27.05-157.79h190.6c-10.12,50.78-15.62,105.32-15.62,162.08Z"/>
    <path class="cls-2" d="m1573.95,1009.12c10.31,50.41,15.95,105.03,15.95,162.08s-6.04,115.39-17.03,167.22h-466.75c-10.99-51.83-17.03-108.24-17.03-167.22s5.64-111.67,15.95-162.08h468.91Z"/>
    <path class="cls-2" d="m1794,1166.91c0,60.51-11.39,118.36-32.16,171.51h-152.23c10.79-52.24,16.67-108.55,16.67-167.22s-5.51-111.29-15.62-162.08h156.3c17.51,49.34,27.05,102.44,27.05,157.79Z"/>
  </g>
  <g>
    <circle class="cls-1" cx="609.72" cy="1479.91" r="158.65"/>
    <polygon class="cls-1" points="1694.92 283.66 1652.01 283.9 1410.9 285.26 1370.75 285.48 1343.91 546.04 1365.74 546.04 1624.99 546.04 1649.49 546.04 1651.29 546.04 1698.4 290.49 1699.67 283.63 1694.92 283.66"/>
    <polygon class="cls-1" points="548.37 290.14 486.22 290.49 264.47 290.49 228.97 134.24 198.45 0 0 45.09 0 105.75 143.83 73.06 159.81 143.42 193.24 290.49 193.62 292.15 251.31 546.04 582.33 546.04 548.37 290.14"/>
    <polygon class="cls-1" points="586.87 580.34 259.1 580.34 324.19 866.76 624.9 866.76 586.87 580.34"/>
    <polygon class="cls-1" points="675.43 1247.52 481.96 1247.52 460.15 1151.47 457.42 1139.46 661.09 1139.46 628.77 895.92 330.81 895.92 340.31 937.7 370.19 1069.15 388.9 1151.47 410.73 1247.52 424.37 1307.54 683.4 1307.54 675.43 1247.52"/>
    <path class="cls-1" d="m854.86,580.34h-222.86l35.38,286.42h243.37c11.05-15.14,22.91-29.64,35.54-43.44v-.02l-5.15-242.96h-86.29Z"/>
    <path class="cls-1" d="m734.08,1247.52h-19.66l7.43,60.03h110.78c-5.61-19.55-10.08-39.58-13.33-60.03h-85.22Z"/>
    <polygon class="cls-1" points="719.2 546.04 850.62 546.04 940.41 546.04 934.94 287.95 818.83 288.6 713.74 289.2 596.1 289.87 627.76 546.04 719.2 546.04"/>
    <path class="cls-1" d="m670.98,895.92l30.1,243.54h112.61c1.63-30.67,5.97-60.61,12.78-89.6,2.49-10.55,5.28-20.96,8.4-31.23.79-2.57,1.58-5.13,2.4-7.68,1.65-5.11,3.36-10.17,5.16-15.21,3.58-10.05,7.48-19.98,11.68-29.74,2.09-4.87,4.25-9.72,6.5-14.53,1.13-2.4,2.26-4.79,3.43-7.17,4.63-9.52,9.55-18.87,14.73-28.04,3.91-6.88,7.96-13.67,12.16-20.34h-219.96Z"/>
    <path class="cls-1" d="m1022.55,580.34h-42.29l-2.66,211.59c8.22-7.58,16.69-14.89,25.4-21.88,71.83-57.88,159.69-96.66,255.88-108.6,12.13-1.51,24.37-2.59,36.74-3.22l8.03-77.88h-281.09Z"/>
    <polygon class="cls-1" points="1263.6 286.1 1052.73 287.28 983.94 287.67 980.68 546.04 1026.08 546.04 1260.33 546.04 1307.17 546.04 1333.99 285.7 1263.6 286.1"/>
    <path class="cls-1" d="m1621.46,580.34h-281.09l-7.98,77.28c4.67.09,9.31.24,13.94.46,2.98.14,5.95.3,8.92.49,20.76,1.32,41.18,3.89,61.18,7.62,5.72,1.07,11.4,2.23,17.05,3.49,14.12,3.14,28.01,6.87,41.66,11.15,16.38,5.14,32.4,11.09,48.02,17.8,5.21,2.24,10.37,4.56,15.48,6.96s10.18,4.89,15.2,7.46c5.02,2.57,9.99,5.21,14.91,7.94,12.3,6.82,24.29,14.13,35.95,21.91,3.07,2.04,6.12,4.12,9.14,6.23l7.98-43.27.05-.27,23.09-125.24h-23.5Z"/>
  </g>
</svg>